<svg t="1694504324148" class="icon" viewBox="0 0 1024 1024" version="1.1" xmlns="http://www.w3.org/2000/svg" p-id="19510" width="16" height="16"><path d="M69.769392 142.127513v280.340362h280.340363v-280.340362zM34.916266 72.358121H385.1523a34.916266 34.916266 0 0 1 34.916266 34.916265v350.236035a34.916266 34.916266 0 0 1-34.916266 34.916265H34.916266A34.916266 34.916266 0 0 1 0 457.510421V107.400666a34.916266 34.916266 0 0 1 34.916266-35.042545z" p-id="19511"></path><path d="M69.769392 673.700826v280.340363h280.340363v-280.340363zM34.853126 603.931434H385.1523a34.916266 34.916266 0 0 1 34.916266 34.916266v350.109755a34.916266 34.916266 0 0 1-34.916266 34.916266H34.916266A34.916266 34.916266 0 0 1 0 988.957455v-350.109755a34.916266 34.916266 0 0 1 34.916266-34.916266z m706.722901-519.703046L543.506721 282.297694l198.069306 198.069306 198.069305-198.069306z m24.687631-73.999753l247.381428 247.381428a34.916266 34.916266 0 0 1 0 49.375262L766.263658 554.366753a34.916266 34.916266 0 0 1-49.375262 0L469.506968 306.985325a34.916266 34.916266 0 0 1 0-49.375262L716.888396 10.228635a34.916266 34.916266 0 0 1 49.312122 0z" p-id="19512"></path><path d="M602.479221 673.700826v280.340363h277.814773v-280.340363zM567.626094 603.931434h347.773585a34.916266 34.916266 0 0 1 34.916266 34.916266v350.236034a34.916266 34.916266 0 0 1-34.916266 34.916266H567.626094a34.916266 34.916266 0 0 1-34.916265-34.916266V638.97398a34.916266 34.916266 0 0 1 34.916265-35.042546z" p-id="19513"></path></svg>