<?xml version="1.0" encoding="utf-8"?>
<!-- Generator: Adobe Illustrator 25.3.1, SVG Export Plug-In . SVG Version: 6.00 Build 0)  -->
<svg version="1.1" xmlns="http://www.w3.org/2000/svg" xmlns:xlink="http://www.w3.org/1999/xlink"
	 viewBox="0 0 16 16" xml:space="preserve">
<path d="M10.8,10.9c0.1,0.2,0.1,0.4,0,0.6l0,0l-0.6,0.5c-0.2,0.1-0.4,0.1-0.6,0l0,0L7.2,9.2V5.5c0-0.2,0.2-0.4,0.4-0.4
	l0,0h0.8c0.2,0,0.4,0.2,0.4,0.4l0,0v3.1L10.8,10.9z M0.3,2C0.1,2.1,0.1,2.3,0.2,2.5l0.4,0.7c0.1,0.2,0.4,0.3,0.5,0.1l2.8-1.6
	C4.1,1.7,4.2,1.4,4,1.2L3.6,0.5C3.5,0.3,3.3,0.3,3.1,0.4L0.3,2z M15.8,2.5l-0.4,0.7c-0.1,0.2-0.4,0.3-0.5,0.1l-2.8-1.6
	c-0.2-0.1-0.3-0.4-0.1-0.5l0.4-0.7c0.1-0.2,0.4-0.3,0.5-0.1l2.8,1.6C15.9,2,16,2.3,15.8,2.5z M15.1,8.8c0,3.9-3.2,7.1-7.1,7.1
	s-7.1-3.2-7.1-7.1c0-3.9,3.2-7.1,7.1-7.1S15.1,4.9,15.1,8.8z M13.4,8.8c0-3-2.4-5.4-5.4-5.4S2.6,5.8,2.6,8.8c0,3,2.4,5.4,5.4,5.4
	S13.4,11.9,13.4,8.8z"/>
</svg>
