<?xml version="1.0" encoding="utf-8"?>
<!-- Generator: Adobe Illustrator 25.3.1, SVG Export Plug-In . SVG Version: 6.00 Build 0)  -->
<svg version="1.1" xmlns="http://www.w3.org/2000/svg" xmlns:xlink="http://www.w3.org/1999/xlink"
	 viewBox="0 0 16 16" xml:space="preserve">
<path d="M9.6,1.5H6.4C6,1.5,5.6,1.8,5.6,2.2v0.7h4.8V2.2C10.4,1.8,10,1.5,9.6,1.5z M9.6,6.5c0.4,0,0.8,0.3,0.8,0.7v4.4
	c0,0.4-0.4,0.7-0.8,0.7c-0.4,0-0.8-0.3-0.8-0.7V7.3C8.8,6.9,9.2,6.5,9.6,6.5z M6.4,6.5c0.4,0,0.8,0.3,0.8,0.7v4.4
	c0,0.4-0.4,0.7-0.8,0.7c-0.4,0-0.8-0.3-0.8-0.7V7.3C5.6,6.9,6,6.5,6.4,6.5z M12.8,4.4H3.2v9.5c0,0.4,0.4,0.7,0.8,0.7h8
	c0.4,0,0.8-0.3,0.8-0.7V4.4z M9.6,0C10.9,0,12,1,12,2.2v0.7h3.2c0.4,0,0.8,0.3,0.8,0.7c0,0.4-0.4,0.7-0.8,0.7h-0.8v9.5
	c0,1.2-1.1,2.2-2.4,2.2H4c-1.3,0-2.4-1-2.4-2.2V4.4H0.8C0.4,4.4,0,4,0,3.6c0-0.4,0.4-0.7,0.8-0.7H4V2.2C4,1,5.1,0,6.4,0H9.6z"/>
</svg>
