<svg t="1694504175112" class="icon" viewBox="0 0 1024 1024" version="1.1" xmlns="http://www.w3.org/2000/svg" p-id="17299" width="16" height="16"><path d="M298.666667 768c-25.6 0-42.666667-17.066667-42.666667-42.666667V298.666667c0-25.6 17.066667-42.666667 42.666667-42.666667s42.666667 17.066667 42.666666 42.666667v426.666666c0 25.6-17.066667 42.666667-42.666666 42.666667zM512 768c-25.6 0-42.666667-17.066667-42.666667-42.666667V298.666667c0-25.6 17.066667-42.666667 42.666667-42.666667s42.666667 17.066667 42.666667 42.666667v426.666666c0 25.6-17.066667 42.666667-42.666667 42.666667z" p-id="17300"></path><path d="M618.666667 554.666667H512c-25.6 0-42.666667-17.066667-42.666667-42.666667V298.666667c0-25.6 17.066667-42.666667 42.666667-42.666667h106.666667C699.733333 256 768 324.266667 768 405.333333S699.733333 554.666667 618.666667 554.666667zM554.666667 469.333333h64c34.133333 0 64-29.866667 64-64S652.8 341.333333 618.666667 341.333333H554.666667v128z" p-id="17301"></path><path d="M896 938.666667H128c-72.533333 0-128-55.466667-128-128V213.333333c0-72.533333 55.466667-128 128-128h768c72.533333 0 128 55.466667 128 128v597.333334c0 72.533333-55.466667 128-128 128zM128 170.666667c-25.6 0-42.666667 17.066667-42.666667 42.666666v597.333334c0 25.6 17.066667 42.666667 42.666667 42.666666h768c25.6 0 42.666667-17.066667 42.666667-42.666666V213.333333c0-25.6-17.066667-42.666667-42.666667-42.666666H128z" p-id="17302"></path></svg>